<?xml version="1.0" encoding="utf-8"?>
<!-- Generator: Adobe Illustrator 18.1.1, SVG Export Plug-In . SVG Version: 6.00 Build 0)  -->
<svg version="1.1" id="Layer_2" xmlns="http://www.w3.org/2000/svg" xmlns:xlink="http://www.w3.org/1999/xlink" x="0px" y="0px"
	 viewBox="0 0 626 626" enable-background="new 0 0 626 626" xml:space="preserve">
<path fill="#FFFFFF" d="M306-1c4.3,0,8.7,0,13,0c0.3,0.3,0.7,0.8,1,0.9c10,0.7,20.1,1.1,30.1,2.2c9.2,1,18.5,2.5,27.6,4.3
	c8.7,1.8,17.4,4.1,25.9,6.7c8.9,2.8,17.8,5.8,26.4,9.5c9.5,4,18.9,8.5,28,13.5c11.4,6.3,22.5,13,33.5,20.1c5.7,3.7,10.7,8.4,16,12.6
	c4.7,3.8,9.7,7.3,14.1,11.4c8.3,7.8,16.6,15.7,24.1,24.2c8.6,9.8,17.1,19.8,24.1,30.7c9,14.1,16.9,28.9,24.5,43.8
	c5.5,10.8,10.6,22.1,14.3,33.6c5.2,16.1,10,32.3,11.6,49.3c1.2,13.1,2.6,26.1,3.9,39.2c0.1,1.4,0.6,2.7,1,4c0,4.7,0,9.3,0,14
	c-0.3,0.3-0.8,0.7-0.9,1c-0.7,9.7-1.3,19.4-2.2,29.1c-0.6,6.7-1.2,13.4-2.6,20c-2.5,11.6-5.3,23.1-8.5,34.5
	c-2.4,8.6-4.8,17.3-8.6,25.3c-7.5,15.7-15.5,31.1-24.1,46.2c-6,10.6-12.6,21.1-20.5,30.3c-12.6,14.6-26.1,28.4-39.8,42
	c-6.7,6.6-14.3,12.3-22.1,17.6c-9.7,6.7-19.9,12.8-30.1,18.8c-8.5,5-17.1,10.1-26.2,13.9c-18.6,7.7-37.4,14.5-57.2,19
	c-19.3,4.3-38.7,6.3-58.3,7.5c-1.7,0.1-3.4,0.6-5,1c-5,0-10,0-15,0c-6.1-0.7-12.2-1.2-18.3-2c-13.4-1.9-26.9-3.3-40.1-6.1
	c-13.6-2.9-27.2-6.5-40.3-11.1c-11.9-4.1-23.6-9.1-34.7-15.1c-13.8-7.5-27.1-16-40.2-24.8c-9.1-6.1-17.9-13-26.1-20.4
	c-9.1-8.1-17.6-17-26-25.9c-4.8-5-9.2-10.5-13.3-16.1c-6.2-8.6-12.7-17-17.9-26.2C37.9,461.2,28.6,445,21.4,428
	c-6.1-14.6-9.7-30.3-13.6-45.7c-2.6-10.4-4.4-21.1-5.7-31.7c-1.3-10.1-1.5-20.4-2.3-30.6c0-0.4-0.6-0.7-0.9-1c0-4.3,0-8.7,0-13
	c0.3-0.7,0.9-1.3,1-2c0.7-8.8,1.7-17.6,2-26.5c0.7-17.8,4.5-35.1,9.6-52.1c4.8-16.1,9.7-32.3,18.2-47.1
	c7.9-13.8,14.2-28.6,23.3-41.5c11.6-16.4,25.1-31.5,38.3-46.6c5.6-6.4,12.4-11.9,19.1-17.2c11-8.5,22-17.1,33.7-24.5
	c11.5-7.3,23.7-13.5,35.9-19.5c10.5-5.1,21.2-9.8,32.2-13.6c10.1-3.5,20.7-6.1,31.2-8.4c9.9-2.2,19.9-3.9,29.9-5
	c10.5-1.2,21-1.5,31.6-2.2C305.3-0.2,305.7-0.7,306-1z M312.5,391c12.5,0,25,0.2,37.5-0.1c7.5-0.1,12.4-3.9,14.1-10.4
	c0.7-2.5,0.7-5.2,1.5-7.6c4.6-14.4,14-25.2,26.4-33.3c8.7-5.8,18-10.6,26.5-16.6c7.2-5,14.2-10.7,20.5-16.7
	c5.4-5.2,10.4-11,14.7-17.2c3.3-4.7,5.2-10.4,7.5-15.8c4.4-10.4,7.2-21.3,7.6-32.7c0.4-10.9,0.5-21.8-3.1-32.3
	c-3.1-9-6.3-18.2-10.8-26.5c-4.7-8.5-10.8-16.3-16.8-24c-10.1-12.7-22.3-23.4-36.5-31.3c-10.4-5.7-21-11.4-32.2-15.2
	c-12.1-4.1-24.7-6.7-37.8-7.7c-15.5-1.2-30.9-0.8-45.9,1.8c-24.2,4.1-46.8,13.4-66.9,28c-11,8-21.1,17-29.4,27.7
	c-7.9,10.1-15.2,20.5-22.4,31.1c-2.8,4.1-1.6,9.3,2.9,13.2c7.2,6.2,14.7,12,22.3,17.7c10.5,8,21.4,15.6,31.8,23.8
	c7.1,5.6,14.4,5.9,20.1-0.6c5.6-6.3,11-12.9,16.4-19.4c11.7-14.2,24.9-25.5,44.7-27c13.6-1.1,26.7-0.3,38.4,6.7
	c17.7,10.7,22.5,18.2,18.1,38.8c-2.4,11.3-11.2,18.2-20.8,23.7c-10.1,5.8-20.4,11-30.4,16.9c-12.2,7.1-22.5,16.4-31.4,27.4
	c-6.6,8.1-12.6,16.6-16.1,26.6c-3.8,10.9-4.1,22.1-4.3,33.6c-0.1,11.1,5.4,17.7,17.7,17.6C288.5,390.9,300.5,391,312.5,391z
	 M312.9,416c-13,0-26-0.1-39,0c-10,0.1-14.6,4.7-14.8,13.7c-0.5,25.8-0.5,51.7,0,77.5c0.2,8.6,4.8,13.7,13.4,13.7
	c26,0.1,52,0.2,78,0c9.6-0.1,14.1-5,14.3-14.3c0.3-25.5,0.3-51,0-76.5c-0.1-8.6-5.5-14.3-14.5-14.2C337.9,416.1,325.4,416,312.9,416
	z"/>
</svg>
