<?xml version="1.0" standalone="no"?>
<!DOCTYPE svg PUBLIC "-//W3C//DTD SVG 20010904//EN"
 "http://www.w3.org/TR/2001/REC-SVG-20010904/DTD/svg10.dtd">
<svg version="1.0" xmlns="http://www.w3.org/2000/svg"
 width="626.000000pt" height="626.000000pt" viewBox="0 0 626.000000 626.000000"
 preserveAspectRatio="xMidYMid meet">
<metadata>
Created by potrace 1.13, written by Peter Selinger 2001-2015
</metadata>
<g transform="translate(0.000000,626.000000) scale(0.100000,-0.100000)"
fill="#000000" stroke="none">
<path d="M2830 6245 c-369 -41 -697 -128 -1005 -269 -193 -89 -479 -265 -640
-394 -252 -204 -498 -471 -659 -717 -71 -110 -83 -129 -141 -233 -373 -674
-480 -1491 -294 -2242 114 -461 314 -866 609 -1232 97 -120 339 -362 460 -459
186 -150 468 -326 657 -410 37 -17 82 -36 98 -44 56 -25 170 -67 265 -96 633
-198 1265 -198 1900 0 280 87 536 211 800 389 340 229 647 539 867 877 332
509 513 1112 513 1715 0 712 -247 1408 -699 1970 -98 122 -339 363 -461 461
-188 152 -448 314 -660 412 -486 225 -1097 328 -1610 272z m90 -1045 l0 -610
-500 0 c-443 0 -500 2 -500 15 0 40 127 325 204 460 55 94 139 220 201 300
107 138 297 308 410 368 43 23 165 76 178 76 4 1 7 -273 7 -609z m507 579
c233 -92 505 -361 691 -683 88 -152 222 -448 222 -490 0 -15 -45 -16 -500 -16
l-500 0 0 610 c0 336 2 610 5 610 2 0 39 -14 82 -31z m-1487 -227 c0 -4 -13
-23 -28 -42 -16 -19 -40 -55 -55 -80 -15 -25 -31 -52 -37 -60 -112 -181 -218
-410 -321 -692 l-32 -88 -309 0 c-169 0 -308 2 -308 5 0 10 34 60 124 180 209
279 553 573 861 737 93 49 105 54 105 40z m2473 -34 c90 -46 278 -166 344
-219 23 -19 59 -47 80 -62 75 -55 291 -267 366 -359 82 -99 206 -268 207 -280
0 -5 -139 -8 -309 -8 l-308 0 -37 96 c-20 53 -36 100 -36 105 0 23 -147 344
-206 449 -20 36 -48 85 -61 110 -14 25 -49 80 -79 122 -30 43 -54 80 -54 83 0
9 11 5 93 -37z m-3056 -1370 c-16 -65 -38 -186 -52 -293 -32 -243 -35 -272
-41 -392 l-7 -123 -414 0 -414 0 6 83 c15 182 76 441 152 650 l36 97 370 0
369 0 -5 -22z m1563 -393 l0 -415 -622 2 -621 3 2 75 c1 41 11 149 21 240 19
161 29 230 66 418 l17 92 569 0 568 0 0 -415z m1563 383 c3 -18 18 -96 32
-173 32 -172 65 -454 65 -552 l0 -73 -620 0 -620 0 0 415 0 415 569 0 568 0 6
-32z m1190 -65 c76 -209 137 -468 152 -650 l6 -83 -414 0 -414 0 -6 114 c-13
215 -57 546 -94 694 l-5 22 369 0 370 0 36 -97z m-4409 -1275 c6 -121 9 -150
41 -393 14 -107 36 -228 52 -292 l5 -23 -369 0 -370 0 -36 98 c-50 138 -82
249 -111 387 -22 103 -45 270 -46 328 0 16 26 17 413 17 l414 0 7 -122z m1656
-293 l0 -415 -567 2 -567 3 -8 30 c-43 159 -109 687 -99 788 1 4 280 7 621 7
l620 0 0 -415z m1660 342 c0 -138 -60 -580 -98 -722 l-8 -30 -567 -3 -567 -2
0 415 0 415 620 0 620 0 0 -73z m1250 56 c-1 -58 -24 -225 -46 -328 -29 -138
-61 -249 -111 -387 l-36 -98 -370 0 -369 0 5 23 c37 147 81 478 94 693 l6 114
414 0 c387 0 413 -1 413 -17z m-4327 -1330 c21 -54 37 -101 37 -106 0 -24 150
-346 211 -452 22 -38 45 -81 52 -95 6 -14 40 -67 75 -119 35 -51 61 -95 58
-98 -13 -14 -328 174 -433 258 -23 19 -59 47 -80 62 -75 55 -291 267 -366 359
-82 99 -206 268 -207 281 0 4 139 7 308 7 l309 0 36 -97z m1417 -513 c0 -335
-2 -610 -5 -610 -16 0 -149 59 -198 88 -193 113 -416 354 -573 621 -83 142
-224 453 -224 496 0 13 57 15 500 15 l500 0 0 -610z m1420 595 c0 -65 -186
-446 -299 -615 -130 -193 -304 -374 -455 -474 -64 -43 -216 -116 -241 -116 -3
0 -5 275 -5 610 l0 610 500 0 c434 0 500 -2 500 -15z m1070 8 c-1 -16 -154
-221 -233 -312 -99 -114 -278 -282 -397 -373 -86 -66 -261 -182 -315 -210 -16
-8 -54 -27 -83 -42 -30 -16 -56 -26 -58 -23 -3 3 24 48 60 102 36 53 66 99 66
101 0 3 26 51 58 107 32 56 68 122 80 147 33 67 132 299 132 307 0 5 16 52 37
106 l36 97 309 0 c169 0 308 -3 308 -7z"/>
</g>
</svg>
