<?xml version="1.0" encoding="utf-8"?>
<!-- Generator: Adobe Illustrator 18.1.1, SVG Export Plug-In . SVG Version: 6.00 Build 0)  -->
<svg version="1.1" id="Layer_2" xmlns="http://www.w3.org/2000/svg" xmlns:xlink="http://www.w3.org/1999/xlink" x="0px" y="0px"
	 viewBox="0 0 626 626" enable-background="new 0 0 626 626" xml:space="preserve">
<path fill="#FFFFFF" d="M357,626c-5,0-10,0-15,0c-0.8-0.3-1.7-0.9-2.5-1c-13.7-1.4-27.5-2.2-41.2-4.1c-18.4-2.6-36.2-7.4-53.7-13.8
	c-23.7-8.7-46.1-19.7-67.2-33.8c-19.7-13.2-37.5-28.2-54-45.2c-15.5-16-29-33.5-40.3-52.6c-8.4-14.1-15.8-28.9-22.5-43.8
	c-4.8-10.6-8.5-21.9-11.4-33.2c-3.5-13.5-5.9-27.4-8.1-41.2c-1.9-11.8-3.4-23.7-3.9-35.7c-0.9-18,0.2-35.9,3.8-53.7
	c2.7-13.4,4.6-27,8.2-40.2c3.4-12.5,7.8-24.8,13-36.6c6.3-14.3,13.3-28.3,21.2-41.7c6.7-11.3,14.9-21.7,22.9-32.1
	c6.3-8.1,13.1-15.9,20.2-23.3c6.6-6.8,13.6-13.2,21.1-19.1c11.3-8.9,22.6-17.8,34.7-25.5c11.4-7.3,23.6-13.4,35.8-19.4
	c9.9-4.9,20-9.3,30.4-12.9c10.7-3.7,21.9-6.2,32.9-8.9C299.7,3.7,318.3,1.9,337,1c1.7-0.1,3.4-0.6,5-1c5,0,10,0,15,0
	c0.3,0.3,0.7,0.8,1,0.9c14.6,1.4,29.2,2.3,43.6,4.3c11.3,1.6,22.5,3.9,33.4,7.1c12.1,3.5,24.1,7.8,35.6,12.9
	c13.7,6.1,27.4,12.5,40,20.4c14.1,8.8,27.6,18.7,40.4,29.3c12.8,10.5,24.3,22.5,36.1,33.6c-4.6,4.9-8.2,8.8-11.9,12.6
	c-12.9,13.3-25.8,26.5-38.8,39.8c-12.9,13.3-25.9,26.5-38.8,39.8c-13.3,13.6-26.6,27.2-39.8,40.8c-12.9,13.2-25.8,26.5-38.8,39.7
	c-9.2,9.4-18.6,18.6-27.8,28c-2,2-3.7,4.2-0.6,7.1c5.5,5.1,10.6,10.5,15.9,15.8c10.4,10.4,20.8,20.8,31.1,31.3
	c10,10.3,19.6,20.9,29.5,31.2c11.8,12.2,24,24.2,35.8,36.3c18.1,18.6,36,37.4,54.3,55.8c9.8,9.8,20.2,19,30.3,28.4
	c-4.2,4.8-7.2,8.6-10.6,12c-17.2,17.6-35.9,33.4-56.5,47.1c-17.6,11.7-36.4,21.2-55.7,29.3c-13.7,5.8-28.3,9.4-42.8,13.2
	c-20,5.2-40.6,7.5-61.3,8.3C359.7,625.1,358.3,625.7,357,626z M384,117.5c-0.6,25.4,20.4,44.1,43.3,44.1c24.8,0,44.1-17.7,44.5-43.9
	c0.4-25.7-19.5-44.5-44.5-44.6C404.7,73,383,92.9,384,117.5z"/>
</svg>
