<?xml version="1.0" encoding="utf-8"?>
<!-- Generator: Adobe Illustrator 18.1.1, SVG Export Plug-In . SVG Version: 6.00 Build 0)  -->
<svg version="1.1" id="Layer_2" xmlns="http://www.w3.org/2000/svg" xmlns:xlink="http://www.w3.org/1999/xlink" x="0px" y="0px"
	 viewBox="0 0 626 626" enable-background="new 0 0 626 626" xml:space="preserve">
<path fill="#FFFFFF" d="M158,233.2c102.9,0,205.2,0,308,0c0,2,0,3.7,0,5.5c0,72,0.1,144-0.1,216c0,18.7-11,32.9-29.4,38
	c-1.4,0.4-3,0.3-4.5,0.3c-9.1,0-18.3,0-28.1,0c0,2.1,0,3.8,0,5.6c0,24.2,0.6,48.4-0.2,72.5c-0.8,25.6-28.2,40.7-49.7,29
	c-13.2-7.2-18.8-18.5-19-32.8c-0.3-24.5-0.1-49-0.1-74c-1.5-0.1-3-0.3-4.4-0.3c-12.3,0-24.7,0.2-37-0.1c-4.3-0.1-5.8,1.1-5.7,5.6
	c0.2,24.5,0.2,49,0.1,73.5c-0.1,16.1-16,31.2-31.7,32.2c-20.4,1.3-36.8-17.6-36.4-36.2c0.6-23.2,0-46.3,0.2-69.5
	c0-4.5-1.4-5.8-5.7-5.6c-6.8,0.3-13.7-0.1-20.5,0.1c-17.8,0.6-36.1-16.8-36-35.9c0.3-72.5,0.1-145,0.1-217.5
	C158,237.7,158,235.7,158,233.2z"/>
<path fill="#FFFFFF" d="M405.9,45.1c6.8,1.8,7.4,4.3,4,10.6c-7.5,13.4-14.7,26.9-22.1,40.6c47.7,27.4,77.1,66.4,79.1,123.3
	c-103,0-206.1,0-310.5,0c1-9.1,1.2-18.5,3.3-27.5c5.4-24,16.8-45,33.7-63.1c11.3-12,23.7-22.3,38.4-29.8c4.4-2.3,3.7-4.7,2-7.8
	c-6.7-12.1-13.4-24.2-20.1-36.3c-0.4-0.7-0.8-1.5-1.1-2.2c-1.5-3-1.3-6.3,1.9-7.3c1.5-0.5,4.9,1.6,5.9,3.4
	c7.1,12.6,14,25.4,20.7,38.3c2.2,4.2,4.5,5.4,8.9,3.3c13.3-6.2,27.4-9.4,42-10.7c8.2-0.7,16.5-2.4,24.6-1.8
	c14.9,1.1,30,2.5,44.3,7.7c4.9,1.8,10,3.1,14.7,5.2c3.4,1.5,5.1,0.5,6.6-2.5c3.6-7.1,7.4-14.1,11.2-21.1
	C397.4,59.9,401.7,52.5,405.9,45.1z M396,151c-0.4-6.6-5.9-13.7-13.5-13.1c-6.6,0.6-13.5,6.7-13.5,13.1c0,7,7.3,14.2,14.2,13.9
	C390.3,164.6,396,158.3,396,151z M254,151.5c0-7.9-5.4-13.5-13-13.5c-7.5,0-13,5.5-13,13c0,7.8,6.1,14.7,13.2,13.8
	C248.4,163.9,254.2,159.9,254,151.5z"/>
<path fill="#FFFFFF" d="M548,333c0,24.2-0.3,48.3,0.1,72.5c0.3,17.6-15.9,33.5-33.7,33.9c-14.8,0.4-33.5-14.5-33.5-29.5
	c0-4.4-0.9-8.9-0.9-13.3c-0.1-44-0.1-88,0-132c0-9.2,1.5-18,7.8-25.6c7.7-9.3,21.6-14.1,33.3-11.6c9,1.9,16.1,6.7,21,13.8
	c3.2,4.6,5.4,10.7,5.6,16.2C548.3,282.7,548,307.9,548,333z"/>
<path fill="#FFFFFF" d="M76,333c0-24.8,0.1-49.6,0-74.5c0-10.5,4.9-18.3,12.7-24.4c14.8-11.5,31.3-9.6,44.9,2.3
	c5.6,4.9,9.4,11.9,9.4,19.9c0.1,50.8,0.1,101.6,0,152.4c0,15.8-16.2,29.4-30.5,30.3c-18.1,1.2-31.8-10.5-35.8-24.9
	c-0.5-1.7-0.7-3.5-0.7-5.3C76,383.7,76,358.3,76,333z"/>
</svg>
