<?xml version="1.0" encoding="utf-8"?>
<!-- Generator: Adobe Illustrator 18.1.1, SVG Export Plug-In . SVG Version: 6.00 Build 0)  -->
<svg version="1.1" id="Layer_2" xmlns="http://www.w3.org/2000/svg" xmlns:xlink="http://www.w3.org/1999/xlink" x="0px" y="0px"
	 viewBox="0 0 626 626" enable-background="new 0 0 626 626" xml:space="preserve">
<path fill="#FFFFFF" d="M96,625c0-18.8,0-37.6,0-56.9c17.1,0,33.8,0,51,0c0-2.5,0-4.4,0-6.4c0-53.5,0-107-0.1-160.4
	c0-4.2,1.4-6.3,5.1-8.4c10.2-5.8,20-12.2,30-18.4c11.5-7.1,23-14.2,34.5-21.4c12.6-7.9,25.1-15.8,37.6-23.7
	c7.7-4.8,15.6-9.5,23.3-14.3c1.1-0.7,2.2-1.4,4.2-2.7c-4.6-3.3-8.6-6.2-12.7-8.9c-16.5-11.1-32.9-22.3-49.5-33.3
	c-12.6-8.3-25.5-16.3-38.2-24.6c-8.5-5.5-16.7-11.4-25.1-17c-2.4-1.6-3.3-3.4-3.3-6.4C153,169.1,153,116,153,62.8c0-2,0-4,0-6.5
	c-18.9,0-37.6,0-57,0c0-19.5,0-38.4,0-57.3c144,0,288,0,432,0c0,18.8,0,37.6,0,56.8c-19.3,0-38.2,0-58,0c0,2.3,0,4.2,0,6.1
	c0,53.7-0.1,107.3,0.1,161c0,3.9-1.4,6-4.4,7.9c-15.6,9.4-31.3,18.8-46.8,28.4c-12.8,7.9-25.4,16-38.1,24
	c-15.5,9.7-31,19.3-47.1,29.3c4.3,3.1,8.1,6,12.1,8.6c14.1,9.1,28.3,18,42.4,27.1c15.9,10.2,31.7,20.6,47.6,30.9
	c8.5,5.5,17.1,10.8,25.6,16.2c2.7,1.7,3.7,4.1,3.7,7.5c-0.1,53-0.1,106-0.1,159c0,2,0,3.9,0,6.2c21.1,0,41.7,0,63,0
	c0,19.3,0,38.2,0,57.1C384,625,240,625,96,625z M438,567.8c0-10,0-19.6,0-29.3c0-39.3,0-78.7-0.1-118c0-1.8-0.4-4.4-1.6-5.2
	c-9.7-6.8-19.7-13.4-29.6-19.9c-9.3-6.1-18.7-11.9-27.9-18.1c-12.3-8.3-24.4-16.9-36.7-25.2c-10.6-7.2-21.3-14.4-32.2-21.4
	c-1.4-0.9-4.2-1-5.6-0.2c-6.1,3.4-12.1,7.1-18,10.9c-19.6,12.2-39.1,24.6-58.7,36.7c-16.4,10.2-32.9,20.2-49.4,30.3
	c-3,1.9-4.5,4.3-4.4,8.4c0.2,48.5,0.1,97,0.1,145.5c0,1.8,0,3.6,0,5.6C262.1,567.8,349.7,567.8,438,567.8z M179,56.2
	c0,2.4,0,4.4,0,6.4c0,44.7,0.2,89.3-0.2,134c-0.1,10.3,0.9,17.5,11.8,23.3c18.1,9.7,34.6,22.5,51.8,33.8
	c19.9,13.1,39.8,26.1,59.9,38.8c2.4,1.6,4.9,4.7,9,1.7c6.2-4.4,13.1-7.9,19.6-12c10.9-6.8,21.7-13.9,32.7-20.6
	c10-6.2,20.2-12,30.1-18.2c14.6-9,28.9-18.3,43.5-27.2c4.4-2.7,6.8-5.3,6.8-11.1c-0.3-47.7-0.2-95.3-0.2-143c0-1.9,0-3.9,0-6
	C355.5,56.2,267.6,56.2,179,56.2z"/>
<path fill="#FFFFFF" d="M190,553.7c0-7-0.2-13.6,0.1-20.3c0.1-1.2,1.9-3.1,3.1-3.3c19-2.5,38.1-4.3,56.9-7.4
	c7.5-1.2,14.6-5.4,21.8-8.3c10.6-4.2,20.9-9.2,31.8-12.4c4-1.2,9.3,1.3,13.7,2.9c14.2,5.2,28.4,10.2,42.2,16.2
	c9.1,4,18.4,3.7,27.8,4.8c8.1,1,16.2,2.2,24.3,3.4c0.6,0.1,1.2,0.5,1.9,0.6c9.3,1.3,9.3,1.3,9.3,10.5c0,4.3,0,8.6,0,13.2
	C345.3,553.7,268,553.7,190,553.7z"/>
<path fill="#FFFFFF" d="M196,135.2c77.2,0,153.8,0,231,0c0,1.9,0,3.6,0,5.4c0,17-0.3,34,0.2,51c0.2,5.7-2.5,8.1-6.6,10.6
	c-17.7,10.8-35.2,21.7-52.8,32.6c-10.4,6.4-20.9,12.7-31.3,19.1c-7.5,4.6-15.3,8.9-22.2,14.2c-5.1,3.9-9,2.2-13.1-0.6
	c-13.6-9.1-27-18.3-40.6-27.3c-19-12.6-38.1-25.1-57.2-37.5c-5.3-3.4-7.9-7.2-7.6-14.2C196.5,171,196,153.3,196,135.2z"/>
</svg>
