<?xml version="1.0" encoding="utf-8"?>
<!-- Generator: Adobe Illustrator 18.1.1, SVG Export Plug-In . SVG Version: 6.00 Build 0)  -->
<svg version="1.1" id="Layer_2" xmlns="http://www.w3.org/2000/svg" xmlns:xlink="http://www.w3.org/1999/xlink" x="0px" y="0px"
	 viewBox="0 0 626 626" enable-background="new 0 0 626 626" xml:space="preserve">
<path fill="#FFFFFF" d="M-0.8,318c0-4,0-8,0-12c0.7-6.4,1.3-12.9,2-19.3c1.1-10.1,1.6-20.3,3.5-30.3c2.2-11.3,5.8-22.3,8.4-33.5
	c4.2-17.5,11.2-34,19.3-49.9c7.4-14.5,16.2-28.3,25.3-41.8c7.1-10.4,15-20.3,23.5-29.6c17.8-19.4,37.7-36.3,59.6-50.9
	c17.7-11.8,36.6-21.4,56.2-29.4c13.6-5.5,28.1-9,42.3-12.9c20.3-5.6,41.2-7.3,62.2-8.4c1.5-0.1,3-0.6,4.5-1c4.3,0,8.7,0,13,0
	c0.3,0.3,0.7,0.8,1,0.9c12,1.1,24,1.6,35.8,3.3c13,1.8,26.2,4,38.8,7.4c12.9,3.5,25.4,8.6,37.9,13.5c9.3,3.7,18.7,7.7,27.4,12.7
	c11.5,6.5,22.7,13.6,33.3,21.3c11.1,8.1,21.9,16.7,32,26.1c9.5,8.9,18.4,18.6,26.7,28.6c8.2,9.8,16,19.9,22.8,30.6
	c8,12.8,15,26.3,21.7,39.9c4.7,9.7,8.7,19.9,12.1,30.1c3.2,9.5,5.1,19.5,7.7,29.2c5.2,19.4,6.5,39.4,7.7,59.3c0.1,1.4,0.6,2.7,1,4
	c0,4.3,0,8.7,0,13c-0.7,5.8-1.4,11.5-2,17.3c-1.1,10.1-1.1,20.5-3.3,30.3c-3.6,16.6-6.6,33.5-13.6,49.2
	c-6.4,14.4-12.1,29.1-18.9,43.3c-4.8,10-10.4,19.6-16.8,28.7c-7.5,10.7-16.1,20.7-24.5,30.8c-13,15.7-27.9,29.5-44.4,41.4
	c-12,8.7-24.7,16.4-37.3,24.3c-16.7,10.5-35,17.7-53.6,24.2c-9.5,3.3-19.5,5.1-29.2,7.7c-19.1,5.2-38.7,6.5-58.4,7.7
	c-1.4,0.1-2.7,0.6-4,1c-4.7,0-9.3,0-14,0c-0.3-0.3-0.7-0.8-1-0.9c-12-1.1-24-1.6-35.9-3.3c-13-1.8-26.2-4-38.8-7.4
	c-12.7-3.5-25.1-8.6-37.3-13.5c-10.1-4-20.3-8.2-29.7-13.5c-11-6.2-21.5-13.3-31.8-20.7c-9.8-7-19.6-14.4-28.5-22.5
	c-19.6-17.9-36.9-38.1-51.5-60.4c-11.6-17.6-21.3-36.3-29.1-55.8c-5.4-13.5-8.7-27.9-12.7-41.9c-5.9-20.6-7.6-41.8-8.7-63.1
	C0.1,320.7-0.5,319.3-0.8,318z M166.2,332c0,1.9-0.1,3.2,0,4.5c1,12.1,1.9,24.3,3.1,36.4c0.5,5.5,1.6,11,2.6,16.5
	c1.4,7.5,3.2,15,4.2,22.6c0.5,3.9,1.7,5.3,5.8,5.3c35-0.1,70-0.1,105,0c4,0,5.5-0.9,5.5-5.3c-0.2-24.8-0.2-49.7,0-74.5
	c0-4.2-1.2-5.4-5.4-5.4c-19.5,0.2-39,0.1-58.5,0.1C207.9,332,187.4,332,166.2,332z M228.8,292c19.5,0,39,0,58.5,0
	c3.2,0,4.9-0.5,4.9-4.3c-0.1-25.5-0.1-51,0-76.5c0-2.8-0.8-4.3-3.9-4.3c-36,0.1-72,0-108,0.1c-1.3,0-3.4,1.2-3.6,2.2
	c-1.7,7.3-3.3,14.6-4.4,22c-1.4,9.2-2.2,18.6-3.2,27.9c-1,9.3-1.9,18.6-2.9,27.9c-0.5,4.1,1.4,5.1,5.2,5
	C190.5,291.9,209.7,292,228.8,292z M395.2,292c19.3,0,38.6-0.1,57.9,0.1c4,0,5.4-1.2,5.1-5.2c-0.5-5.6-0.5-11.2-1.1-16.8
	c-1-9.4-2.1-18.9-3.6-28.2c-1.5-9.8-3.9-19.5-5.2-29.3c-0.6-4.3-2.1-5.7-6.2-5.6c-35,0.1-69.9,0.1-104.9,0c-4,0-5.2,1.2-5.1,5.1
	c0.2,25,0.2,49.9,0,74.9c0,4,1.3,5.1,5.2,5.1C356.6,291.9,375.9,292,395.2,292z M395.2,332c-19.1,0-38.3,0.1-57.4-0.1
	c-4.4,0-5.7,1.2-5.7,5.6c0.2,24.6,0.2,49.3,0,73.9c0,4.4,1.3,5.7,5.7,5.6c22-0.2,44-0.1,65.9-0.1c12.8,0,25.6,0.1,38.5-0.1
	c2,0,5.3-1.3,5.6-2.6c1.9-7.1,3.3-14.3,4.3-21.5c1.3-9.2,2.1-18.6,3.1-27.8c1-9.3,1.9-18.6,2.9-27.8c0.4-4-1.1-5.2-5.1-5.2
	C433.8,332.1,414.5,332,395.2,332z M291.8,42.4c-7.4,3.2-13.9,5.4-19.8,8.7c-13.2,7.6-24.2,17.9-34.4,29c-4,4.3-8.1,8.7-11.3,13.7
	c-6.7,10.4-13.4,20.8-19,31.7c-6.7,13-12.4,26.6-19,41c3.1,0.2,4.6,0.4,6.2,0.4c30.8,0,61.6-0.1,92.4,0.1c4.2,0,5.4-1.2,5.4-5.4
	c-0.1-37.8-0.1-75.6-0.1-113.4C292.1,46.8,292,45.2,291.8,42.4z M434.7,457.6c-1.3-0.4-1.7-0.5-2-0.5c-32.2,0-64.3,0-96.5-0.1
	c-4,0-4.1,2.2-4.1,5.1c0,38,0,76,0.1,114c0,1.5,0.4,3.1,0.8,6.2c10.2-5.4,20-9.2,28.3-15.2c15.3-11.2,28.6-24.8,39.1-40.8
	c5.4-8.1,10.8-16.3,15.5-24.8c5-9.2,9.4-18.8,13.7-28.5C431.7,468.1,432.9,462.9,434.7,457.6z M332.6,43c-0.2,2-0.4,3.2-0.4,4.5
	c0,38.1,0,76.3-0.1,114.4c0,4,1.3,5.1,5.2,5.1c31.1-0.1,62.3-0.1,93.4-0.1c1.1,0,2.2-0.2,3.6-0.4c-0.2-1.4-0.3-2.6-0.7-3.6
	c-2.1-5.6-4-11.3-6.6-16.7c-4.4-9.6-8.9-19.1-14-28.3c-4.9-8.8-9.9-17.8-16.3-25.5C388,82,378.2,72.3,368.3,62.9
	C358.5,53.4,346.5,47.3,332.6,43z M291.7,581c0.2-2,0.4-3.2,0.4-4.5c0-38.1,0-76.3,0.1-114.4c0-4-1.3-5.1-5.2-5.1
	c-31,0.1-62,0.1-93,0.1c-0.7,0-1.6-0.3-1.9,0.1c-0.9,0.9-2.3,2.5-2,3.2c6.9,15.4,13.6,30.9,21.2,45.9c4.5,8.9,9.8,17.8,16.2,25.4
	c8.7,10.5,18.5,20.1,28.4,29.6C265.8,570.6,277.8,576.7,291.7,581z M134.7,207c-1.9,0-3.7,0-5.5,0c-20,0-39.9,0.1-59.9-0.1
	c-5.2-0.1-8.9,0-10.6,6.6c-3.6,13.9-8.9,27.5-12.4,41.4c-2.6,10.2-3.5,20.9-5.1,31.4c-0.6,3.6,0.1,5.9,4.8,5.8
	c25.5-0.2,50.9-0.1,76.4-0.1c0.8,0,1.6-0.2,1.7-0.2C127.7,263.5,131.2,235.6,134.7,207z M500.2,292c1.2,0,3,0,4.8,0
	c22.7,0,45.3,0,68,0c10.1,0,10.2,0,9.1-9.7c-0.9-8.4-1.4-17.1-3.6-25.2c-4.1-15.3-9.7-30.3-13.9-45.6c-1.2-4.3-3.1-4.5-6.5-4.5
	c-21.3,0.1-42.6,0-64,0c-1.6,0-3.2,0-4.6,0C493.2,235.6,496.7,263.5,500.2,292z M488.8,416.2c1,0.5,1.3,0.7,1.6,0.7
	c23.3,0,46.6,0.1,70,0c1.3,0,3.1-1.9,3.6-3.2c2.4-6.2,4.7-12.4,6.7-18.7c2.7-8.6,5.4-17.3,7.3-26.1c2.1-10,3.3-20.3,5-30.4
	c0.9-4.9-0.1-6.3-5.2-6.3c-23.2,0-46.3,0-69.5,0c-2.8,0-6.1-0.4-8.2,0.9c-1.3,0.8-0.9,4.5-1.2,6.9c-1.3,12.2-2.5,24.5-4,36.6
	c-1,7.7-2.5,15.4-3.7,23.1C490.5,405.2,489.7,410.8,488.8,416.2z M134.7,417c-3.6-28.6-7.1-56.6-10.7-84.8c0.1,0-0.2-0.1-0.5-0.1
	c-26.1,0-52.3,0-78.4-0.1c-4.5,0-4.3,2.8-3.9,5.6c0.4,2.9,1.3,5.7,1.9,8.6c2.3,12.5,4,25.1,7,37.4c2.3,9.6,6.6,18.7,9.1,28.2
	c1.4,5.4,4.3,5.4,8.5,5.3c6.2-0.2,12.3-0.1,18.5-0.1C102.3,417,118.4,417,134.7,417z M429.9,67c-0.3,0.3-0.7,0.7-1,1
	c2.4,3.4,5.1,6.7,7.3,10.3c5.5,9.3,11.1,18.7,16.1,28.3c5,9.4,9.6,19,13.9,28.8c3.9,9.1,7.3,18.4,10.5,27.8c1.1,3.2,2.6,3.9,5.6,3.9
	c18.5-0.1,37-0.1,55.4-0.1c1.1,0,2.2-0.2,4.4-0.3C513.4,122.5,476.2,89.7,429.9,67z M195.2,556.2c-0.6-1.1-1.1-2.4-1.8-3.4
	c-14.8-19.1-24.9-40.8-35-62.6c-4.4-9.5-7.6-19.7-10.9-29.7c-0.9-2.8-2.1-3.6-4.8-3.5c-18.3,0.1-36.6,0-54.9,0.1
	c-1.6,0-3.1,0.7-5,1.2C111.4,501.8,148.3,534.6,195.2,556.2z M195.3,67.3C171.1,69.9,84.5,147.3,83.6,167c20,0,40,0.1,59.9-0.1
	c1.2,0,3-1.6,3.6-2.9c4.9-12.2,9.1-24.6,14.5-36.6c5.4-12,11.7-23.7,18.1-35.3C184.3,83.7,189.9,75.9,195.3,67.3z M541.6,457.9
	c-1-0.5-1.3-0.8-1.6-0.8c-19.8,0-39.6-0.1-59.4,0c-1.2,0-3,1.4-3.4,2.5c-7.7,21.4-15.5,42.7-27.1,62.4c-6,10.2-12.4,20.2-18.7,30.3
	c-0.9,1.4-1.6,2.8-2.4,4.2C476.2,534.3,513.5,501.4,541.6,457.9z"/>
</svg>
